<svg width="24" height="24" viewBox="0 0 24 24" fill="none" xmlns="http://www.w3.org/2000/svg">
<g id="List=ic_bell_pin">
<path id="Union" fill-rule="evenodd" clip-rule="evenodd" d="M14.3752 3.98156C13.6432 3.67099 12.8398 3.5 12 3.5C8.89876 3.5 6.29342 5.83189 5.95094 8.9142L5.69288 11.2363C5.572 12.2897 5.2291 13.3056 4.68681 14.2168L4.06599 15.2516C3.81556 15.669 3.60811 16.0147 3.47327 16.301C3.33718 16.5899 3.23229 16.9025 3.28456 17.2338C3.34107 17.5919 3.5254 17.9175 3.80345 18.1502C4.06063 18.3655 4.38261 18.4364 4.70041 18.4683C5.01528 18.5 5.41847 18.5 5.90519 18.5H8.61116C8.6123 18.5059 8.61355 18.5119 8.61491 18.5178C8.80687 19.3536 9.23265 20.1054 9.84022 20.6493C10.4494 21.1946 11.2081 21.5 12 21.5C12.7919 21.5 13.5506 21.1946 14.1598 20.6493C14.7673 20.1054 15.1931 19.3536 15.3851 18.5178C15.3865 18.5119 15.3877 18.5059 15.3888 18.5H18.0949C18.5816 18.5 18.9848 18.5 19.2997 18.4683C19.6175 18.4364 19.9395 18.3655 20.1966 18.1502C20.4747 17.9175 20.659 17.5919 20.7155 17.2338C20.7678 16.9025 20.6629 16.5899 20.5268 16.301C20.392 16.0147 20.1846 15.669 19.9342 15.2518L19.9342 15.2517L19.3133 14.2168C18.771 13.3056 18.4281 12.2897 18.3072 11.2363L18.2585 10.798C17.9455 10.9016 17.6155 10.9677 17.2737 10.9908L17.3137 11.3503C17.4507 12.5442 17.8393 13.6955 18.4539 14.7282L19.0627 15.7429C19.3306 16.1894 19.5113 16.4918 19.6221 16.7271C19.7341 16.9649 19.7321 17.0504 19.7277 17.0779C19.7089 17.1973 19.6475 17.3058 19.5548 17.3834C19.5334 17.4013 19.4612 17.447 19.1996 17.4734C18.9408 17.4994 18.5885 17.5 18.0678 17.5H5.93227C5.41159 17.5 5.05923 17.4994 4.80051 17.4734C4.53889 17.447 4.4667 17.4013 4.4453 17.3834C4.35262 17.3058 4.29118 17.1973 4.27234 17.0779C4.26799 17.0504 4.26593 16.9649 4.37796 16.7271C4.48875 16.4918 4.66952 16.1894 4.9374 15.7429L5.54615 14.7282C6.16074 13.6955 6.54936 12.5442 6.68636 11.3503L6.94482 9.02463C7.23103 6.44875 9.40831 4.5 12 4.5C12.5837 4.5 13.1464 4.59884 13.6711 4.78142C13.8695 4.48435 14.1066 4.21532 14.3752 3.98156ZM10.5072 19.9042C10.114 19.5522 9.8107 19.0651 9.64359 18.5H14.3564C14.1893 19.0651 13.886 19.5522 13.4928 19.9042C13.0541 20.297 12.5289 20.5 12 20.5C11.4711 20.5 10.9459 20.297 10.5072 19.9042ZM16.1893 5.17115C15.8745 5.31089 15.6025 5.52951 15.3984 5.80192C15.1482 6.13586 15 6.55062 15 7C15 8.10457 15.8954 9 17 9C17.0175 9 17.035 8.99977 17.0524 8.99933C17.407 8.99021 17.7386 8.8888 18.0242 8.71822C18.6086 8.3691 19 7.73026 19 7C19 5.89543 18.1046 5 17 5C16.7114 5 16.4371 5.06113 16.1893 5.17115Z" fill="black"/>
</g>
</svg>
