<svg width="24" height="24" viewBox="0 0 24 24" fill="none" xmlns="http://www.w3.org/2000/svg">
<g id="List=ic_doughnut_chart">
<path id="Vector" d="M4 12C4 16.4183 7.58172 20 12 20C16.4183 20 20 16.4183 20 12C20 7.58172 16.4183 4 12 4M4 12C4 7.58172 7.58172 4 12 4M4 12H8M12 4V8M14.6667 9.33333L17.3333 6.66667M14.6667 14.6667L17.3333 17.3333M15.5556 12C15.5556 13.9637 13.9637 15.5556 12 15.5556C10.0363 15.5556 8.44444 13.9637 8.44444 12C8.44444 10.0363 10.0363 8.44444 12 8.44444C13.9637 8.44444 15.5556 10.0363 15.5556 12Z" stroke="black" stroke-linecap="round"/>
</g>
</svg>
