<svg width="24" height="24" viewBox="0 0 24 24" fill="none" xmlns="http://www.w3.org/2000/svg">
<path d="M20.4 6.39997H20.9H20.4ZM20.4 8.39997H19.9H20.4ZM14.8 9.19997H14.3V9.19997L14.8 9.19997ZM14.8 6.39997H15.3H14.8ZM3.60001 8.07998H4.10001H3.60001ZM3.60001 20.4H3.10001L3.10001 21.0937L3.75812 20.8743L3.60001 20.4ZM14.8 20.4L14.6419 20.8743L15.3 21.0937V20.4H14.8ZM19.6 9.19997V9.69997V9.19997ZM17.6 3.59998V4.09998H17.6L17.6 3.59998ZM8.08001 3.59998V4.09998V3.59998ZM9.20001 20.4L9.04189 20.8743L9.20001 20.927L9.35812 20.8743L9.20001 20.4ZM6.40001 19.4666L6.55812 18.9923L6.40001 18.9396L6.24189 18.9923L6.40001 19.4666ZM12 19.4666L12.1581 18.9923L12 18.9396L11.8419 18.9923L12 19.4666ZM4.25609 4.25606L4.60964 4.60961L4.60964 4.60961L4.25609 4.25606ZM20.3686 8.82492L20.8405 8.99007V8.99006L20.3686 8.82492ZM20.025 9.16854L19.8598 8.6966L20.025 9.16854ZM7.33334 6.8333C7.0572 6.8333 6.83334 7.05716 6.83334 7.3333C6.83334 7.60944 7.0572 7.8333 7.33334 7.8333V6.8333ZM11.0667 7.8333C11.3428 7.8333 11.5667 7.60944 11.5667 7.3333C11.5667 7.05716 11.3428 6.8333 11.0667 6.8333V7.8333ZM8.26667 11.5666C8.54282 11.5666 8.76667 11.3428 8.76667 11.0666C8.76667 10.7905 8.54282 10.5666 8.26667 10.5666V11.5666ZM7.33334 10.5666C7.0572 10.5666 6.83334 10.7905 6.83334 11.0666C6.83334 11.3428 7.0572 11.5666 7.33334 11.5666V10.5666ZM7.33334 14.3C7.0572 14.3 6.83334 14.5238 6.83334 14.8C6.83334 15.0761 7.0572 15.3 7.33334 15.3V14.3ZM10.1333 15.3C10.4095 15.3 10.6333 15.0761 10.6333 14.8C10.6333 14.5238 10.4095 14.3 10.1333 14.3V15.3ZM19.9 6.39997V8.39997H20.9V6.39997H19.9ZM15.3 9.19997V6.39997H14.3V9.19997H15.3ZM3.10001 8.07998L3.10001 20.4H4.10001L4.10001 8.07998H3.10001ZM15.3 20.4L15.3 9.19997L14.3 9.19997L14.3 20.4H15.3ZM19.6 8.69997H14.8V9.69997H19.6V8.69997ZM17.6 3.09998L8.08001 3.09998L8.08001 4.09998L17.6 4.09998V3.09998ZM9.35812 19.9256L6.55812 18.9923L6.24189 19.941L9.04189 20.8743L9.35812 19.9256ZM6.24189 18.9923L3.44189 19.9256L3.75812 20.8743L6.55812 19.941L6.24189 18.9923ZM14.9581 19.9256L12.1581 18.9923L11.8419 19.941L14.6419 20.8743L14.9581 19.9256ZM11.8419 18.9923L9.04189 19.9256L9.35812 20.8743L12.1581 19.941L11.8419 18.9923ZM4.10001 8.07998C4.10001 7.00989 4.10107 6.25763 4.17756 5.68871C4.25211 5.13417 4.38998 4.82927 4.60964 4.60961L3.90253 3.9025C3.46611 4.33893 3.27594 4.89003 3.18647 5.55546C3.09894 6.20651 3.10001 7.03816 3.10001 8.07998H4.10001ZM8.08001 3.09998C7.03819 3.09998 6.20654 3.09891 5.55549 3.18644C4.89007 3.27591 4.33896 3.46608 3.90253 3.9025L4.60964 4.60961C4.8293 4.38995 5.1342 4.25208 5.68874 4.17753C6.25766 4.10104 7.00992 4.09998 8.08001 4.09998L8.08001 3.09998ZM15.3 6.39997C15.3 5.12972 16.3298 4.09998 17.6 4.09998L17.6 3.09998C15.7775 3.09998 14.3 4.57743 14.3 6.39997H15.3ZM19.9 8.39997C19.9 8.51753 19.8998 8.58425 19.8969 8.63333C19.8943 8.67875 19.8906 8.67713 19.8966 8.65979L20.8405 8.99006C20.9071 8.79986 20.9 8.58155 20.9 8.39997H19.9ZM19.6 9.69997C19.7816 9.69997 19.9999 9.70704 20.1901 9.64048L19.8598 8.6966C19.8772 8.69053 19.8788 8.69423 19.8334 8.69689C19.7843 8.69977 19.7176 8.69997 19.6 8.69997V9.69997ZM19.8966 8.65978C19.8906 8.67702 19.8771 8.69057 19.8598 8.6966L20.1901 9.64048C20.4946 9.53394 20.734 9.29454 20.8405 8.99007L19.8966 8.65978ZM17.6 4.09998C18.8703 4.09998 19.9 5.12972 19.9 6.39997H20.9C20.9 4.57743 19.4225 3.09997 17.6 3.09998L17.6 4.09998ZM7.33334 7.8333L11.0667 7.8333V6.8333L7.33334 6.8333V7.8333ZM8.26667 10.5666H7.33334V11.5666H8.26667V10.5666ZM7.33334 15.3H10.1333V14.3H7.33334V15.3Z" fill="black"/>
</svg>
