<svg width="24" height="24" viewBox="0 0 24 24" fill="none" xmlns="http://www.w3.org/2000/svg">
<g id="List=ic_thumb_up">
<path id="Vector" d="M8.40075 12.0013L10.6744 7.45395C10.7577 7.2873 10.8011 7.10353 10.8011 6.91721V4.80016C10.8011 4.13732 11.3385 3.59998 12.0013 3.59998C13.327 3.59998 14.4017 4.67466 14.4017 6.00035V10.8011M12.0013 10.8011H19.1991C19.999 10.8011 20.5751 11.5689 20.3514 12.3369L18.254 19.538C18.1048 20.0503 17.6353 20.4026 17.1017 20.4026H12.4984C12.1801 20.4026 11.8749 20.2761 11.6498 20.0511L11.1526 19.5539C10.9276 19.3288 10.6223 19.2024 10.304 19.2024H8.40075M4.80019 19.2024H8.22072C8.32015 19.2024 8.40075 19.1218 8.40075 19.0224V10.9811C8.40075 10.8817 8.32015 10.8011 8.22072 10.8011H4.80019C4.13735 10.8011 3.60001 11.3384 3.60001 12.0013V18.0022C3.60001 18.6651 4.13735 19.2024 4.80019 19.2024Z" stroke="black" stroke-linecap="round"/>
</g>
</svg>
