<svg width="24" height="24" viewBox="0 0 24 24" fill="none" xmlns="http://www.w3.org/2000/svg">
<g id="List=ic_thumb_down">
<path id="Vector" d="M15.5992 12L13.3255 16.5466C13.2422 16.7132 13.1988 16.897 13.1988 17.0833L13.1988 19.2C13.1988 19.8627 12.6615 20.4 11.9986 20.4C10.6729 20.4 9.59825 19.3255 9.59825 18V13.2M11.9986 13.2H4.80087C4.00094 13.2 3.42487 12.4323 3.64856 11.6644L5.74589 4.46442C5.89509 3.9522 6.36461 3.59998 6.89819 3.59998L11.5015 3.59998C11.8198 3.59998 12.1251 3.7264 12.3502 3.95145L12.8473 4.4485C13.0724 4.67355 13.3776 4.79998 13.6959 4.79998L15.5992 4.79998M19.1997 4.79998L15.7792 4.79998C15.6798 4.79998 15.5992 4.88057 15.5992 4.97998V13.02C15.5992 13.1194 15.6798 13.2 15.7792 13.2L19.1997 13.2C19.8626 13.2 20.3999 12.6627 20.3999 12V5.99998C20.3999 5.33724 19.8626 4.79998 19.1997 4.79998Z" stroke="#222222" stroke-linecap="round"/>
</g>
</svg>
