<svg width="24" height="24" viewBox="0 0 24 24" fill="none" xmlns="http://www.w3.org/2000/svg">
<g id="List=ic_link">
<path id="Vector" d="M14.3536 10.3536C14.5488 10.1583 14.5488 9.84172 14.3536 9.64646C14.1583 9.4512 13.8417 9.4512 13.6465 9.64646L14.3536 10.3536ZM9.64646 13.6465C9.4512 13.8417 9.4512 14.1583 9.64646 14.3536C9.84172 14.5488 10.1583 14.5488 10.3536 14.3536L9.64646 13.6465ZM18 11L17.6465 10.6465L18 11ZM15.6465 12.6465C15.4512 12.8417 15.4512 13.1583 15.6465 13.3536C15.8417 13.5488 16.1583 13.5488 16.3536 13.3536L15.6465 12.6465ZM10.6465 7.64646C10.4512 7.84172 10.4512 8.1583 10.6465 8.35357C10.8417 8.54883 11.1583 8.54883 11.3536 8.35357L10.6465 7.64646ZM13 6.00001L12.6465 5.64646V5.64646L13 6.00001ZM6.00001 13L6.35357 13.3536L6.00001 13ZM8.35356 11.3536C8.54883 11.1583 8.54883 10.8417 8.35356 10.6465C8.1583 10.4512 7.84172 10.4512 7.64646 10.6465L8.35356 11.3536ZM13.3536 16.3536C13.5488 16.1583 13.5488 15.8417 13.3536 15.6465C13.1583 15.4512 12.8417 15.4512 12.6465 15.6465L13.3536 16.3536ZM11 18L10.6465 17.6465L11 18ZM13.6465 9.64646L9.64646 13.6465L10.3536 14.3536L14.3536 10.3536L13.6465 9.64646ZM17.6465 10.6465L15.6465 12.6465L16.3536 13.3536L18.3536 11.3536L17.6465 10.6465ZM11.3536 8.35357L13.3536 6.35356L12.6465 5.64646L10.6465 7.64646L11.3536 8.35357ZM6.35357 13.3536L8.35356 11.3536L7.64646 10.6465L5.64646 12.6465L6.35357 13.3536ZM12.6465 15.6465L10.6465 17.6465L11.3536 18.3536L13.3536 16.3536L12.6465 15.6465ZM6.35356 17.6465C5.16811 16.461 5.16812 14.539 6.35357 13.3536L5.64646 12.6465C4.07048 14.2224 4.07048 16.7776 5.64646 18.3536L6.35356 17.6465ZM5.64646 18.3536C7.22243 19.9295 9.77759 19.9295 11.3536 18.3536L10.6465 17.6465C9.46101 18.8319 7.53902 18.8319 6.35356 17.6465L5.64646 18.3536ZM17.6465 6.35357C18.8319 7.53902 18.8319 9.46101 17.6465 10.6465L18.3536 11.3536C19.9295 9.77759 19.9295 7.22243 18.3536 5.64646L17.6465 6.35357ZM18.3536 5.64646C16.7776 4.07048 14.2224 4.07048 12.6465 5.64646L13.3536 6.35357C14.539 5.16811 16.461 5.16812 17.6465 6.35357L18.3536 5.64646Z" fill="#222222"/>
</g>
</svg>
