<svg width="24" height="24" viewBox="0 0 24 24" fill="none" xmlns="http://www.w3.org/2000/svg">
<path d="M11.222 10.526V12.895H13.556M18 19L15.862 16M16.9 5C17.94 5.09119 18.7953 5.85728 19 6.881M8.137 16C7.11977 14.9591 6.55202 13.5604 6.556 12.105C6.53383 9.07591 8.97092 6.60211 12 6.579C15.0291 6.60211 17.4662 9.07591 17.444 12.105C17.4667 15.1345 15.0295 17.6089 12 17.632C10.5448 17.632 9.15144 17.0433 8.137 16ZM8.137 16L6 19M7.1 5C6.06 5.09119 5.20472 5.85728 5 6.881" stroke="#4272DD" stroke-linecap="round" stroke-linejoin="round"/>
</svg>
